<svg xmlns="http://www.w3.org/2000/svg" xmlns:xlink="http://www.w3.org/1999/xlink" width="306" zoomAndPan="magnify" viewBox="0 0 229.5 176.249993" height="235" preserveAspectRatio="xMidYMid meet" version="1.0"><defs><g/><clipPath id="01f71c3f8f"><path d="M 58.015625 0.71875 L 171.777344 0.71875 L 171.777344 126.457031 L 58.015625 126.457031 Z M 58.015625 0.71875 " clip-rule="nonzero"/></clipPath></defs><g clip-path="url(#01f71c3f8f)"><path fill="#ffffff" d="M 82.835938 74.992188 L 82.835938 37.855469 L 70.425781 37.855469 L 70.425781 81.53125 L 114.949219 111.378906 L 171.753906 73.210938 L 171.753906 88.042969 L 114.949219 126.320312 L 58.039062 88.078125 L 58.039062 25.535156 L 146.945312 25.523438 L 146.945312 60.0625 L 159.355469 51.808594 L 159.355469 13.203125 L 58.039062 13.203125 L 58.039062 0.859375 L 171.753906 0.859375 L 171.753906 58.292969 L 114.949219 96.585938 Z M 82.835938 74.992188 " fill-opacity="1" fill-rule="nonzero"/></g><g fill="#ffffff" fill-opacity="1"><g transform="translate(21.287005, 166.993313)"><g><path d="M 10.96875 -23.703125 C 12.75 -23.703125 14.335938 -23.367188 15.734375 -22.703125 C 17.140625 -22.035156 18.234375 -21.117188 19.015625 -19.953125 C 19.796875 -18.796875 20.1875 -17.484375 20.1875 -16.015625 C 20.1875 -13.847656 19.34375 -12.160156 17.65625 -10.953125 C 15.976562 -9.742188 13.75 -9.140625 10.96875 -9.140625 L 8.125 -9.140625 L 8.125 0 L 2.203125 0 L 2.203125 -23.703125 Z M 9.8125 -9.8125 C 11.082031 -9.8125 12.125 -10.222656 12.9375 -11.046875 C 13.75 -11.878906 14.15625 -12.914062 14.15625 -14.15625 C 14.15625 -15.375 13.75 -16.394531 12.9375 -17.21875 C 12.125 -18.039062 11.082031 -18.453125 9.8125 -18.453125 L 8.125 -18.453125 L 8.125 -9.8125 Z M 9.8125 -9.8125 "/></g></g></g><g fill="#ffffff" fill-opacity="1"><g transform="translate(45.554118, 166.993313)"><g><path d="M 24.046875 0 L 17.703125 0 L 15.4375 -6.609375 L 8.46875 -6.609375 L 6.203125 0 L 0 0 L 8.9375 -23.703125 L 15.09375 -23.703125 Z M 11.953125 -16.796875 L 8.703125 -7.28125 L 15.203125 -7.28125 Z M 11.953125 -16.796875 "/></g></g></g><g fill="#ffffff" fill-opacity="1"><g transform="translate(72.934871, 166.993313)"><g><path d="M 10.09375 0.4375 C 7.25 0.4375 4.960938 -0.296875 3.234375 -1.765625 C 1.503906 -3.234375 0.617188 -5.351562 0.578125 -8.125 L 6.4375 -8.125 C 6.5 -5.570312 7.707031 -4.296875 10.0625 -4.296875 C 11.070312 -4.296875 11.835938 -4.5 12.359375 -4.90625 C 12.878906 -5.3125 13.140625 -5.863281 13.140625 -6.5625 C 13.140625 -7.101562 12.953125 -7.5625 12.578125 -7.9375 C 12.203125 -8.3125 11.738281 -8.613281 11.1875 -8.84375 C 10.632812 -9.082031 9.828125 -9.382812 8.765625 -9.75 C 7.191406 -10.269531 5.90625 -10.773438 4.90625 -11.265625 C 3.914062 -11.765625 3.050781 -12.507812 2.3125 -13.5 C 1.582031 -14.5 1.21875 -15.789062 1.21875 -17.375 C 1.21875 -18.675781 1.582031 -19.84375 2.3125 -20.875 C 3.050781 -21.90625 4.078125 -22.707031 5.390625 -23.28125 C 6.710938 -23.851562 8.222656 -24.140625 9.921875 -24.140625 C 11.453125 -24.140625 12.890625 -23.851562 14.234375 -23.28125 C 15.578125 -22.707031 16.671875 -21.816406 17.515625 -20.609375 C 18.367188 -19.398438 18.804688 -17.890625 18.828125 -16.078125 L 13.0625 -16.078125 C 13.039062 -17.097656 12.769531 -17.90625 12.25 -18.5 C 11.738281 -19.101562 10.960938 -19.40625 9.921875 -19.40625 C 9.085938 -19.40625 8.429688 -19.207031 7.953125 -18.8125 C 7.484375 -18.414062 7.25 -17.890625 7.25 -17.234375 C 7.25 -16.460938 7.59375 -15.875 8.28125 -15.46875 C 8.96875 -15.0625 10.054688 -14.625 11.546875 -14.15625 C 13.128906 -13.632812 14.425781 -13.117188 15.4375 -12.609375 C 16.457031 -12.097656 17.332031 -11.34375 18.0625 -10.34375 C 18.800781 -9.34375 19.171875 -8.039062 19.171875 -6.4375 C 19.171875 -5.164062 18.8125 -4.007812 18.09375 -2.96875 C 17.382812 -1.9375 16.347656 -1.109375 14.984375 -0.484375 C 13.617188 0.128906 11.988281 0.4375 10.09375 0.4375 Z M 10.09375 0.4375 "/></g></g></g><g fill="#ffffff" fill-opacity="1"><g transform="translate(96.017442, 166.993313)"><g><path d="M 10.09375 0.4375 C 7.25 0.4375 4.960938 -0.296875 3.234375 -1.765625 C 1.503906 -3.234375 0.617188 -5.351562 0.578125 -8.125 L 6.4375 -8.125 C 6.5 -5.570312 7.707031 -4.296875 10.0625 -4.296875 C 11.070312 -4.296875 11.835938 -4.5 12.359375 -4.90625 C 12.878906 -5.3125 13.140625 -5.863281 13.140625 -6.5625 C 13.140625 -7.101562 12.953125 -7.5625 12.578125 -7.9375 C 12.203125 -8.3125 11.738281 -8.613281 11.1875 -8.84375 C 10.632812 -9.082031 9.828125 -9.382812 8.765625 -9.75 C 7.191406 -10.269531 5.90625 -10.773438 4.90625 -11.265625 C 3.914062 -11.765625 3.050781 -12.507812 2.3125 -13.5 C 1.582031 -14.5 1.21875 -15.789062 1.21875 -17.375 C 1.21875 -18.675781 1.582031 -19.84375 2.3125 -20.875 C 3.050781 -21.90625 4.078125 -22.707031 5.390625 -23.28125 C 6.710938 -23.851562 8.222656 -24.140625 9.921875 -24.140625 C 11.453125 -24.140625 12.890625 -23.851562 14.234375 -23.28125 C 15.578125 -22.707031 16.671875 -21.816406 17.515625 -20.609375 C 18.367188 -19.398438 18.804688 -17.890625 18.828125 -16.078125 L 13.0625 -16.078125 C 13.039062 -17.097656 12.769531 -17.90625 12.25 -18.5 C 11.738281 -19.101562 10.960938 -19.40625 9.921875 -19.40625 C 9.085938 -19.40625 8.429688 -19.207031 7.953125 -18.8125 C 7.484375 -18.414062 7.25 -17.890625 7.25 -17.234375 C 7.25 -16.460938 7.59375 -15.875 8.28125 -15.46875 C 8.96875 -15.0625 10.054688 -14.625 11.546875 -14.15625 C 13.128906 -13.632812 14.425781 -13.117188 15.4375 -12.609375 C 16.457031 -12.097656 17.332031 -11.34375 18.0625 -10.34375 C 18.800781 -9.34375 19.171875 -8.039062 19.171875 -6.4375 C 19.171875 -5.164062 18.8125 -4.007812 18.09375 -2.96875 C 17.382812 -1.9375 16.347656 -1.109375 14.984375 -0.484375 C 13.617188 0.128906 11.988281 0.4375 10.09375 0.4375 Z M 10.09375 0.4375 "/></g></g></g><g fill="#ffffff" fill-opacity="1"><g transform="translate(119.10002, 166.993313)"><g><path d="M 27.359375 -23.703125 L 30.8125 0 L 24.8125 0 L 22.515625 -17.671875 L 16.453125 0 L 14.765625 0 L 8.640625 -14.28125 L 6.765625 0 L 1.015625 0 L 4.46875 -23.703125 L 9.78125 -23.703125 L 17.578125 -5.515625 L 23.84375 -23.703125 Z M 27.359375 -23.703125 "/></g></g></g><g fill="#ffffff" fill-opacity="1"><g transform="translate(154.26487, 166.993313)"><g><path d="M 24.046875 0 L 17.703125 0 L 15.4375 -6.609375 L 8.46875 -6.609375 L 6.203125 0 L 0 0 L 8.9375 -23.703125 L 15.09375 -23.703125 Z M 11.953125 -16.796875 L 8.703125 -7.28125 L 15.203125 -7.28125 Z M 11.953125 -16.796875 "/></g></g></g><g fill="#ffffff" fill-opacity="1"><g transform="translate(181.645627, 166.993313)"><g><path d="M 18.625 -3.921875 L 18.625 -23.703125 L 24.375 -23.703125 L 24.375 0 L 20.140625 0 L 7.953125 -19.78125 L 7.953125 0 L 2.203125 0 L 2.203125 -23.703125 L 6.4375 -23.703125 Z M 18.625 -3.921875 "/></g></g></g></svg>